<svg width="343" height="241" viewBox="0 0 343 241" fill="none" xmlns="http://www.w3.org/2000/svg">
<g clip-path="url(#clip0_1_3)">
<rect width="343" height="241" fill="white"/>
<circle cx="14.5" cy="205.5" r="7.5" fill="#3C3C3C"/>
<circle cx="315.5" cy="11.5" r="7.5" fill="#3C3C3C"/>
<path d="M10.0568 233V224.273H13.108C13.7159 224.273 14.2173 224.378 14.6122 224.588C15.0071 224.795 15.3011 225.075 15.4943 225.428C15.6875 225.777 15.7841 226.165 15.7841 226.591C15.7841 226.966 15.7173 227.276 15.5838 227.52C15.4531 227.764 15.2798 227.957 15.0639 228.099C14.8509 228.241 14.6193 228.347 14.3693 228.415V228.5C14.6364 228.517 14.9048 228.611 15.1747 228.781C15.4446 228.952 15.6705 229.196 15.8523 229.514C16.0341 229.832 16.125 230.222 16.125 230.682C16.125 231.119 16.0256 231.513 15.8267 231.862C15.6278 232.212 15.3139 232.489 14.8849 232.693C14.456 232.898 13.8977 233 13.2102 233H10.0568ZM11.1136 232.062H13.2102C13.9006 232.062 14.3906 231.929 14.6804 231.662C14.973 231.392 15.1193 231.065 15.1193 230.682C15.1193 230.386 15.044 230.114 14.8935 229.864C14.7429 229.611 14.5284 229.409 14.25 229.259C13.9716 229.105 13.642 229.028 13.2614 229.028H11.1136V232.062ZM11.1136 228.108H13.0739C13.392 228.108 13.679 228.045 13.9347 227.92C14.1932 227.795 14.3977 227.619 14.5483 227.392C14.7017 227.165 14.7784 226.898 14.7784 226.591C14.7784 226.207 14.6449 225.882 14.3778 225.615C14.1108 225.345 13.6875 225.21 13.108 225.21H11.1136V228.108ZM20.7763 224.273V233H19.7195V225.381H19.6683L17.5376 226.795V225.722L19.7195 224.273H20.7763Z" fill="black"/>
<line x1="13.1893" y1="201.738" x2="315.189" y2="7.73795" stroke="black" stroke-width="3"/>
<path d="M155.227 95V86.2727H156.523V87.5909H156.614C156.773 87.1591 157.061 86.8087 157.477 86.5398C157.894 86.2708 158.364 86.1364 158.886 86.1364C158.985 86.1364 159.108 86.1383 159.256 86.142C159.403 86.1458 159.515 86.1515 159.591 86.1591V87.5227C159.545 87.5114 159.441 87.4943 159.278 87.4716C159.119 87.4451 158.951 87.4318 158.773 87.4318C158.348 87.4318 157.97 87.5208 157.636 87.6989C157.307 87.8731 157.045 88.1155 156.852 88.4261C156.663 88.733 156.568 89.0833 156.568 89.4773V95H155.227Z" fill="black"/>
<path d="M57.4091 155V143.364H64.3864V144.614H58.8182V148.545H63.8636V149.795H58.8182V155H57.4091Z" fill="black"/>
<path d="M158.227 224V215.273H159.523V216.591H159.614C159.773 216.159 160.061 215.809 160.477 215.54C160.894 215.271 161.364 215.136 161.886 215.136C161.985 215.136 162.108 215.138 162.256 215.142C162.403 215.146 162.515 215.152 162.591 215.159V216.523C162.545 216.511 162.441 216.494 162.278 216.472C162.119 216.445 161.951 216.432 161.773 216.432C161.348 216.432 160.97 216.521 160.636 216.699C160.307 216.873 160.045 217.116 159.852 217.426C159.663 217.733 159.568 218.083 159.568 218.477V224H158.227ZM164.453 221.018L166.124 223.749H166.178L167.849 221.018H169.069L166.894 224.509L169.083 228H167.855L166.178 225.307H166.124L164.446 228H163.219L165.445 224.509L163.233 221.018H164.453Z" fill="black"/>
<path d="M65.4091 224V212.364H72.3864V213.614H66.8182V217.545H71.8636V218.795H66.8182V224H65.4091ZM74.8906 221.018L76.5611 223.749H76.6156L78.2861 221.018H79.5065L77.3315 224.509L79.5202 228H78.2929L76.6156 225.307H76.5611L74.8838 228H73.6565L75.8827 224.509L73.6702 221.018H74.8906Z" fill="black"/>
<path d="M15.4091 155V143.364H22.3864V144.614H16.8182V148.545H21.8636V149.795H16.8182V155H15.4091ZM23.619 152.018H24.8156L26.6395 155.192H26.7145L28.5384 152.018H29.7349L27.202 156.259V159H26.152V156.259L23.619 152.018Z" fill="black"/>
<path d="M324.227 123V114.273H325.523V115.591H325.614C325.773 115.159 326.061 114.809 326.477 114.54C326.894 114.271 327.364 114.136 327.886 114.136C327.985 114.136 328.108 114.138 328.256 114.142C328.403 114.146 328.515 114.152 328.591 114.159V115.523C328.545 115.511 328.441 115.494 328.278 115.472C328.119 115.445 327.951 115.432 327.773 115.432C327.348 115.432 326.97 115.521 326.636 115.699C326.307 115.873 326.045 116.116 325.852 116.426C325.663 116.733 325.568 117.083 325.568 117.477V123H324.227ZM329.182 120.018H330.378L332.202 123.192H332.277L334.101 120.018H335.297L332.764 124.259V127H331.714V124.259L329.182 120.018Z" fill="black"/>
<line x1="14" y1="201.5" x2="316" y2="201.5" stroke="black" stroke-width="3"/>
<line x1="316.5" y1="12" x2="316.5" y2="203" stroke="black" stroke-width="3"/>
<path d="M76.7307 161.579L59.4279 162.362L68.7578 176.955L76.7307 161.579ZM16.5387 201.843L66.1646 170.114L64.5486 167.587L14.9227 199.315L16.5387 201.843Z" fill="#FE0000"/>
<path d="M77 201L62 192.34V209.66L77 201ZM14 202.5H63.5V199.5H14V202.5Z" fill="#FE0000"/>
<path d="M16 162L7.33974 177L24.6603 177L16 162ZM17.5 203L17.5 175.5L14.5 175.5L14.5 203L17.5 203Z" fill="#FE0000"/>
<line x1="15" y1="161" x2="77" y2="161" stroke="#FF0000" stroke-width="2" stroke-dasharray="4 4"/>
<line x1="76" y1="201" x2="76" y2="162" stroke="#FF0000" stroke-width="2" stroke-dasharray="4 4"/>
</g>
<defs>
<clipPath id="clip0_1_3">
<rect width="343" height="241" fill="white"/>
</clipPath>
</defs>
</svg>
